HIERARCHY
ROOT Hips
{
  OFFSET 13.6774 106.653 -34.4427
  CHANNELS 6 Xposition Yposition Zposition Zrotation Xrotation Yrotation
  JOINT ToSpine
  {
    OFFSET -2.69724 7.43032 -0.144315
    CHANNELS 3 Zrotation Xrotation Yrotation
    JOINT Spine
    {
      OFFSET -0.0310711 10.7595 1.96963
      CHANNELS 3 Zrotation Xrotation Yrotation
      JOINT Spine1
      {
        OFFSET 19.9056 3.91189 0.764692
        CHANNELS 3 Zrotation Xrotation Yrotation
        JOINT Neck
        {
          OFFSET 25.9749 7.03908 -0.130764
          CHANNELS 3 Zrotation Xrotation Yrotation
          JOINT Head
          {
            OFFSET 9.52751 0.295786 -0.907742
            CHANNELS 3 Zrotation Xrotation Yrotation
            End Site
            {
              OFFSET 16.4037 0.713936 2.7358
            }
          }
        }
        JOINT LeftShoulder
        {
          OFFSET 17.7449 4.33886 11.7777
          CHANNELS 3 Zrotation Xrotation Yrotation
          JOINT LeftArm
          {
            OFFSET 0.911315 1.27913 9.80584
            CHANNELS 3 Zrotation Xrotation Yrotation
            JOINT LeftForeArm
            {
              OFFSET 28.6126 1.18197 -3.53199
              CHANNELS 3 Zrotation Xrotation Yrotation
              JOINT LeftHand
              {
                OFFSET 27.5088 0.0218783 0.327423
                CHANNELS 3 Zrotation Xrotation Yrotation
                End Site
                {
                  OFFSET 18.6038 -0.000155887 0.382096
                }
              }
            }
          }
        }
        JOINT RightShoulder
        {
          OFFSET 17.1009 2.89543 -12.2328
          CHANNELS 3 Zrotation Xrotation Yrotation
          JOINT RightArm
          {
            OFFSET 1.4228 0.178766 -10.211
            CHANNELS 3 Zrotation Xrotation Yrotation
            JOINT RightForeArm
            {
              OFFSET 28.733 1.87905 2.64907
              CHANNELS 3 Zrotation Xrotation Yrotation
              JOINT RightHand
              {
                OFFSET 27.4588 0.290562 -0.101845
                CHANNELS 3 Zrotation Xrotation Yrotation
                End Site
                {
                  OFFSET 17.8396 -0.255518 -0.000602873
                }
              }
            }
          }
        }
      }
    }
  }
  JOINT LeftUpLeg
  {
    OFFSET -5.61296 -2.22332 -10.2353
    CHANNELS 3 Zrotation Xrotation Yrotation
    JOINT LeftLeg
    {
      OFFSET 2.56703 -44.7417 -7.93097
      CHANNELS 3 Zrotation Xrotation Yrotation
      JOINT LeftFoot
      {
        OFFSET 3.16933 -46.5642 -3.96578
        CHANNELS 3 Zrotation Xrotation Yrotation
        JOINT LeftToeBase
        {
          OFFSET 0.346054 -6.02161 12.8035
          CHANNELS 3 Zrotation Xrotation Yrotation
          End Site
          {
            OFFSET 0.134235 -1.35082 5.13018
          }
        }
      }
    }
  }
  JOINT RightUpLeg
  {
    OFFSET -5.7928 -1.72406 10.6446
    CHANNELS 3 Zrotation Xrotation Yrotation
    JOINT RightLeg
    {
      OFFSET -2.57161 -44.7178 -7.85259
      CHANNELS 3 Zrotation Xrotation Yrotation
      JOINT RightFoot
      {
        OFFSET -3.10148 -46.5936 -4.03391
        CHANNELS 3 Zrotation Xrotation Yrotation
        JOINT RightToeBase
        {
          OFFSET -0.0828122 -6.13587 12.8035
          CHANNELS 3 Zrotation Xrotation Yrotation
          End Site
          {
            OFFSET -0.131328 -1.35082 5.13018
          }
        }
      }
    }
  }
}
MOTION
Frames: 10
Frame Time: 0.03333333333333333
0.0000 93.1000 0.0000 -61.7371 -11.8203 123.7600 -71.7163 -0.1710 87.0366 113.7665 65.2305 -26.3613 -9.8290 20.5469 -8.7335 -155.0820 4.1466 -142.7031 -151.3690 41.0583 -176.2951 -0.0391 -13.6750 -38.1774 -120.3657 6.9703 -56.0457 -6.0061 -7.7394 -37.0984 0.8826 -1.1520 -3.6688 -1.0804 7.1090 26.9330 -55.2772 -28.0630 96.1535 -19.2440 -10.4556 114.9156 -0.0167 0.0526 0.3504 -22.3236 36.2724 69.0659 -60.1727 83.0278 26.7968 -4.8018 -18.1839 -1.8420 17.3178 -30.9961 15.4919 -9.4028 -36.8564 119.7359 -3.6371 32.4588 -6.6786 -8.1383 -11.6162 0.9107 2.2222 0.4967 -17.3062 
0.0000 93.1000 0.0000 -62.3636 -11.8005 126.6391 -71.6924 -0.4625 87.0936 120.7206 64.8363 -32.7550 -10.5949 21.9884 -9.5546 -153.9544 5.0187 -143.1024 -149.3255 41.6188 -177.6370 -0.3798 -13.9764 -38.2730 -121.0008 6.5311 -58.1443 -6.3099 -6.9418 -39.8340 0.8288 -1.4639 -3.3512 -1.4347 7.8841 26.1107 -55.2991 -25.4553 104.0123 -16.2234 -7.3432 113.4481 0.3670 0.2481 0.1793 -11.9275 34.1529 72.2363 -145.5927 78.2980 112.1041 -3.8575 -17.0057 -2.1020 17.7835 -30.5633 15.6814 -10.0270 -36.7480 112.4195 -3.1408 33.5546 -3.5105 -8.8387 -11.7138 0.6421 1.9097 -1.0263 -17.4077 
0.0000 93.1000 0.0000 -62.7340 -11.9233 129.8969 -71.8681 -0.0776 87.1774 122.6971 65.5445 -35.5391 -10.6748 22.8901 -9.4631 -153.2434 6.0745 -143.5104 -149.3970 42.4065 -176.5413 -0.2080 -14.8179 -38.8386 -122.4295 5.8982 -59.0305 -6.4455 -6.0701 -43.8802 0.0849 -0.9811 -3.4714 -1.6132 8.1790 25.7878 -55.3503 -22.5115 111.1842 -11.0317 -4.3694 111.4051 0.2981 -0.9732 -0.5994 -4.1102 31.9877 80.2150 -159.9914 70.1198 124.2019 -4.0057 -14.8486 -2.0422 19.5249 -32.4910 21.5611 -10.9284 -36.8539 106.9882 -2.0133 33.8467 -2.6318 -8.9575 -11.8623 1.0487 1.4474 -1.7486 -17.0679 
0.0000 93.1000 0.0000 -61.4052 -11.8306 132.7757 -71.8500 0.0031 87.4199 123.8046 65.9441 -34.5376 -10.4094 24.1096 -10.6412 -152.8769 6.0619 -143.7619 -151.0400 42.4134 -175.5700 -1.2046 -14.9074 -39.9260 -123.6203 4.8220 -59.2795 -6.3060 -5.7905 -48.3421 0.2013 -1.0805 -2.5938 -1.7562 8.5377 24.8779 -54.8338 -20.1348 119.2063 -5.1325 -2.2485 107.7604 -0.1870 0.0454 0.4186 -0.1440 29.0537 90.8410 -161.6856 66.0697 123.3946 -4.6736 -12.9540 -1.6464 20.4250 -33.9973 24.5876 -14.3785 -36.6217 99.5358 -0.9403 33.8895 0.3161 -9.0527 -12.1619 0.8969 2.9698 -3.8356 -20.7032 
0.0000 93.1000 0.0000 -61.6661 -10.2546 137.8474 -71.8799 -0.0036 87.3707 128.7512 65.3243 -36.7058 -9.9004 25.0771 -12.0442 -152.0077 6.5826 -145.2504 -150.8181 42.3255 -174.3772 -0.7034 -14.7898 -40.2047 -124.6242 4.8528 -58.1208 -6.2066 -5.0345 -54.3115 0.1917 -1.0832 -1.8109 -2.0540 9.1818 24.0690 -54.4562 -18.3892 126.1708 -1.7209 -1.0511 104.5864 -0.0475 -0.2149 -0.1578 0.0007 25.7983 101.3081 -160.4051 67.9592 118.8218 -6.0790 -10.0350 -1.1497 20.7291 -33.8737 23.6971 -20.1521 -35.5597 90.6332 0.4257 31.9104 0.5293 -9.7771 -12.1254 0.9425 3.3303 -6.6576 -22.6994 
0.0000 93.1000 0.0000 -63.5716 -9.1033 141.6671 -71.8023 0.2570 87.2703 133.8668 65.0404 -40.4456 -9.8318 25.9619 -11.6229 -149.9550 7.0092 -146.1074 -150.3127 42.5022 -173.4993 -0.1471 -13.3852 -39.2539 -125.4287 5.5980 -56.3001 -5.1804 -2.9135 -62.4172 0.5936 -0.7532 -1.0315 -1.6935 10.2249 23.6765 -53.9267 -17.0086 131.3493 1.1074 -0.0701 102.6645 0.0088 -0.4457 -0.2192 -4.8914 22.1572 109.6059 -151.9930 75.2130 108.8513 -9.8849 -5.5977 -0.5140 19.2405 -32.2173 19.0716 -26.1866 -32.6815 84.2758 1.6791 32.9516 -0.6057 -9.9338 -12.9738 1.1617 2.9678 -4.7955 -22.4417 
0.0000 93.1000 0.0000 -64.6189 -8.1802 146.9963 -71.7967 0.1309 87.1997 135.7421 65.2460 -40.5897 -10.1594 25.9316 -11.1170 -148.9216 7.3133 -147.0462 -149.6413 43.1323 -171.9655 -0.1022 -12.7856 -37.9636 -125.3152 6.0761 -55.1888 -1.2494 -1.1158 -70.5991 0.8320 -0.6630 -0.1175 -1.5487 10.3293 23.9474 -54.0745 -16.2302 134.3594 3.2040 0.1769 103.5954 -0.0549 -0.0672 -0.0685 -9.9450 18.1818 115.1144 -106.8728 83.2705 61.3632 -14.9009 0.2606 0.8576 17.1789 -30.7514 15.0436 -30.2855 -27.7159 81.4578 1.4170 34.8379 -2.2860 -10.5713 -15.3301 1.2149 3.2764 -3.0301 -22.8116 
0.0000 93.1000 0.0000 -65.6529 -7.7816 152.6937 -71.6305 -0.3370 87.3233 133.7769 66.5370 -37.5993 -9.0386 26.5513 -11.1212 -146.9393 7.2157 -150.1379 -149.3553 42.4974 -173.4601 -0.4723 -12.6066 -36.1817 -124.7890 5.6880 -55.2101 1.9872 -0.0957 -76.5103 0.9711 -0.3580 0.8248 -1.6706 10.5888 22.9371 -55.0934 -17.2901 137.4323 4.3520 1.1051 103.7073 -0.0753 -0.0252 -0.2615 -16.1777 12.8175 115.2510 -25.8140 76.8102 -22.3546 -19.0733 4.0163 2.6841 14.0437 -27.9182 12.2650 -34.3805 -22.7197 77.6339 1.6923 35.9961 -5.6239 -8.3373 -17.0379 1.0103 2.7581 -1.6550 -21.8034 
0.0000 93.1000 0.0000 -66.6989 -8.0925 157.8567 -71.5156 -0.0436 87.2159 132.6283 68.4219 -34.6300 -7.8546 26.8869 -10.0555 -145.8331 7.8054 -152.4999 -147.9395 42.5771 -173.6253 -0.1968 -12.9035 -35.2500 -123.4167 5.6114 -57.1200 5.6930 -0.0544 -81.5707 0.9002 -0.1777 1.9757 -1.0139 10.1424 19.8378 -54.0856 -19.3676 140.5188 5.9027 1.4673 105.4952 0.0474 0.0787 0.3591 -23.0400 7.2219 111.9149 -11.6521 64.0229 -33.7778 -21.9970 5.2014 3.7744 10.2748 -21.9600 9.4760 -39.2308 -18.6385 73.4259 1.7436 35.0331 -7.3999 -4.7112 -17.1847 1.0041 2.3117 -0.6129 -18.0092 
0.0000 93.1000 0.0000 -68.6754 -8.2470 162.8293 -71.3810 0.0195 87.3071 128.6239 69.5909 -31.5261 -5.8389 26.9343 -9.0482 -145.7280 7.9525 -155.0914 -149.4985 43.2110 -172.8162 0.1707 -12.9155 -34.0283 -123.7731 5.7804 -59.0781 8.7377 0.2623 -85.4483 0.3290 -0.1630 2.4570 -0.4932 9.0301 16.9615 -52.0026 -22.0678 143.6943 9.2661 2.8404 106.7372 0.1925 -0.2109 0.2627 -30.9892 3.8104 109.3745 -7.1592 51.9642 -34.9052 -23.4455 6.1738 4.2331 9.0425 -20.0194 5.8080 -43.1824 -15.4348 68.4270 1.1738 36.0768 -6.1211 -2.6931 -13.8202 0.8964 2.0921 -3.8530 -12.1875 
